  0
SECTION
  2
HEADER
  9
$ACADVER
  1
AC1009
  9
$INSBASE
 10
0.0
 20
0.0
 30
0.0
  9
$EXTMIN
 10
0.0
 20
0.0
 30
0.0
  9
$EXTMAX
 10
16.8423928142568187
 20
8.1633601990097464
 30
0.0
  9
$LIMMIN
 10
0.0
 20
0.0
  9
$LIMMAX
 10
16.8423928142568187
 20
8.1633601990097464
  9
$ORTHOMODE
 70
     0
  9
$REGENMODE
 70
     1
  9
$FILLMODE
 70
     1
  9
$QTEXTMODE
 70
     0
  9
$MIRRTEXT
 70
     0
  9
$DRAGMODE
 70
     2
  9
$LTSCALE
 40
1.0
  9
$OSMODE
 70
     0
  9
$ATTMODE
 70
     1
  9
$TEXTSIZE
 40
0.2
  9
$TRACEWID
 40
0.05
  9
$TEXTSTYLE
  7
STANDARD
  9
$CLAYER
  8
0
  9
$CELTYPE
  6
BYLAYER
  9
$CECOLOR
 62
   256
  9
$DIMSCALE
 40
1.0
  9
$DIMASZ
 40
0.18
  9
$DIMEXO
 40
0.0625
  9
$DIMDLI
 40
0.38
  9
$DIMRND
 40
0.0
  9
$DIMDLE
 40
0.0
  9
$DIMEXE
 40
0.18
  9
$DIMTP
 40
0.0
  9
$DIMTM
 40
0.0
  9
$DIMTXT
 40
0.18
  9
$DIMCEN
 40
0.09
  9
$DIMTSZ
 40
0.0
  9
$DIMTOL
 70
     0
  9
$DIMLIM
 70
     0
  9
$DIMTIH
 70
     1
  9
$DIMTOH
 70
     1
  9
$DIMSE1
 70
     0
  9
$DIMSE2
 70
     0
  9
$DIMTAD
 70
     0
  9
$DIMZIN
 70
     0
  9
$DIMBLK
  1

  9
$DIMASO
 70
     1
  9
$DIMSHO
 70
     1
  9
$DIMPOST
  1

  9
$DIMAPOST
  1

  9
$DIMALT
 70
     0
  9
$DIMALTD
 70
     2
  9
$DIMALTF
 40
25.3999999999999986
  9
$DIMLFAC
 40
1.0
  9
$DIMTOFL
 70
     0
  9
$DIMTVP
 40
0.0
  9
$DIMTIX
 70
     0
  9
$DIMSOXD
 70
     0
  9
$DIMSAH
 70
     0
  9
$DIMBLK1
  1

  9
$DIMBLK2
  1

  9
$DIMSTYLE
  2
STANDARD
  9
$DIMCLRD
 70
     0
  9
$DIMCLRE
 70
     0
  9
$DIMCLRT
 70
     0
  9
$DIMTFAC
 40
1.0
  9
$DIMGAP
 40
0.09
  9
$LUNITS
 70
     2
  9
$LUPREC
 70
     4
  9
$SKETCHINC
 40
0.1
  9
$FILLETRAD
 40
0.0
  9
$AUNITS
 70
     0
  9
$AUPREC
 70
     0
  9
$MENU
  1
.
  9
$ELEVATION
 40
0.0
  9
$PELEVATION
 40
0.0
  9
$THICKNESS
 40
0.0
  9
$LIMCHECK
 70
     0
  9
$BLIPMODE
 70
     0
  9
$CHAMFERA
 40
0.0
  9
$CHAMFERB
 40
0.0
  9
$SKPOLY
 70
     0
  9
$TDCREATE
 40
2458673.5697337961755693
  9
$TDUPDATE
 40
2458673.5697337961755693
  9
$TDINDWG
 40
0.0
  9
$TDUSRTIMER
 40
0.0
  9
$USRTIMER
 70
     1
  9
$ANGBASE
 50
0.0
  9
$ANGDIR
 70
     0
  9
$PDMODE
 70
     0
  9
$PDSIZE
 40
0.0
  9
$PLINEWID
 40
0.0
  9
$COORDS
 70
     0
  9
$SPLFRAME
 70
     0
  9
$SPLINETYPE
 70
     6
  9
$SPLINESEGS
 70
     8
  9
$ATTDIA
 70
     1
  9
$ATTREQ
 70
     1
  9
$HANDLING
 70
     1
  9
$HANDSEED
  5
1DD
  9
$SURFTAB1
 70
     6
  9
$SURFTAB2
 70
     6
  9
$SURFTYPE
 70
     6
  9
$SURFU
 70
     6
  9
$SURFV
 70
     6
  9
$UCSNAME
  2

  9
$UCSORG
 10
0.0
 20
0.0
 30
0.0
  9
$UCSXDIR
 10
1.0
 20
0.0
 30
0.0
  9
$UCSYDIR
 10
0.0
 20
1.0
 30
0.0
  9
$PUCSNAME
  2

  9
$PUCSORG
 10
0.0
 20
0.0
 30
0.0
  9
$PUCSXDIR
 10
1.0
 20
0.0
 30
0.0
  9
$PUCSYDIR
 10
0.0
 20
1.0
 30
0.0
  9
$USERI1
 70
     0
  9
$USERI2
 70
     0
  9
$USERI3
 70
     0
  9
$USERI4
 70
     0
  9
$USERI5
 70
     0
  9
$USERR1
 40
0.0
  9
$USERR2
 40
0.0
  9
$USERR3
 40
0.0
  9
$USERR4
 40
0.0
  9
$USERR5
 40
0.0
  9
$WORLDVIEW
 70
     1
  9
$SHADEDGE
 70
     3
  9
$SHADEDIF
 70
    70
  9
$TILEMODE
 70
     1
  9
$MAXACTVP
 70
    64
  9
$PLIMCHECK
 70
     0
  9
$PEXTMIN
 10
0.0
 20
0.0
 30
0.0
  9
$PEXTMAX
 10
16.8423928142568187
 20
8.1633601990097464
 30
0.0
  9
$PLIMMIN
 10
0.0
 20
0.0
  9
$PLIMMAX
 10
16.8423928142568187
 20
8.1633601990097464
  9
$UNITMODE
 70
     0
  9
$VISRETAIN
 70
     1
  9
$PLINEGEN
 70
     0
  9
$PSLTSCALE
 70
     1
  0
ENDSEC
  0
SECTION
  2
TABLES
  0
TABLE
  2
VPORT
 70
     1
  0
VPORT
  2
*ACTIVE
 70
     0
 10
0.0
 20
0.0
 11
1.0
 21
1.0
 12
-7.6556330973894653
 22
-3.710618272277157
 13
0.0
 23
0.0
 14
1.0
 24
1.0
 15
0.0
 25
0.0
 16
0.0
 26
0.0
 36
1.0
 17
0.0
 27
0.0
 37
0.0
 40
8.1633601990097464
 41
2.0631691366871059
 42
50.0
 43
0.0
 44
0.0
 50
0.0
 51
0.0
 71
     0
 72
   100
 73
     1
 74
     0
 75
     1
 76
     0
 77
     0
 78
     0
  0
ENDTAB
  0
TABLE
  2
LTYPE
 70
    59
  0
LTYPE
  2
CONTINUOUS
 70
     0
  3
Solid line
 72
    65
 73
     0
 40
0.0
  0
LTYPE
  2
BY_STANDARD
 70
     0
  3
By Standard ____________    ____    ____   _
 72
    65
 73
     6
 40
1.2402999999999991
 49
0.6614
 49
-0.0827
 49
0.1654
 49
-0.0827
 49
0.1654
 49
-0.0827
  0
LTYPE
  2
CHAIN
 70
     0
  3
Chain ____ _ ____ _ ____ _ ____ _ ____ _ ____
 72
    65
 73
     4
 40
0.7087
 49
0.4724000000000001
 49
-0.0591
 49
0.1181
 49
-0.0591
  0
LTYPE
  2
DASH_DOT
 70
     0
  3
Dash dot __ . __ . __ . __ . __ . __ . __ . __
 72
    65
 73
     4
 40
0.37
 49
0.24
 49
-0.06
 49
0.01
 49
-0.06
  0
LTYPE
  2
DOUBLE_DASH_DOT
 70
     0
  3
Double-Dash Dot __ __ . __ __ . __ __ . __ _
 72
    65
 73
     6
 40
0.4398
 49
0.24
 49
-0.06
 49
0.0098
 49
-0.06
 49
0.01
 49
-0.06
  0
LTYPE
  2
DASH_TRIPLE_DOT
 70
     0
  3
Dash Triple-Dot _ . . . _ . . . _ . . . _
 72
    65
 73
     8
 40
0.51
 49
0.24
 49
-0.06
 49
0.01
 49
-0.06
 49
0.01
 49
-0.06
 49
0.01
 49
-0.06
  0
LTYPE
  2
DASHED
 70
     0
  3
Dashed __ __ __ __ __ __ __ __ __ __ __ __ __ _
 72
    65
 73
     2
 40
0.2067
 49
0.1654
 49
-0.0413
  0
LTYPE
  2
DASH_DOUBLE_DOT
 70
     0
  3
Dash Double-Dot __ . . __ . . __ . . __ . .
 72
    65
 73
     6
 40
0.4398
 49
0.24
 49
-0.06
 49
0.0098
 49
-0.06
 49
0.01
 49
-0.06
  0
LTYPE
  2
DASHED_SPACE
 70
     0
  3
Dashed Space __ __ __ __ __ __ __ __ __ __ __ _
 72
    65
 73
     2
 40
0.2067
 49
0.1654
 49
-0.0413
  0
LTYPE
  2
DOTTED
 70
     0
  3
Dotted . . . . . . . . . . . . . . . . . . . . 
 72
    65
 73
     2
 40
0.0482
 49
0.0069
 49
-0.0413
  0
LTYPE
  2
DOUBLE_DASH_CHAIN
 70
     0
  3
Double-Dash Chain ______  __  __  ______  __  _
 72
    65
 73
     6
 40
1.2402999999999991
 49
0.6614
 49
-0.0827
 49
0.1654
 49
-0.0827
 49
0.1654
 49
-0.0827
  0
LTYPE
  2
DOUBLE_DASH_DOUBLE_DOT
 70
     0
  3
Double-Dash Double-dot _ _ . . _ _ . . _
 72
    65
 73
     8
 40
0.7400000000000001
 49
0.24
 49
-0.06
 49
0.24
 49
-0.06
 49
0.01
 49
-0.06
 49
0.01
 49
-0.06
  0
LTYPE
  2
DOUBLE_DASH_TRIPLE_DOT
 70
     0
  3
Double Dash Triple Dot __ __ . . . __ __ . .
 72
    65
 73
    10
 40
0.8100000000000001
 49
0.24
 49
-0.06
 49
0.24
 49
-0.06
 49
0.01
 49
-0.06
 49
0.01
 49
-0.06
 49
0.01
 49
-0.06
  0
LTYPE
  2
LONG_DASH_DOTTED
 70
     0
  3
Long Dash Dotted ____ . ____ . ____ . ____ . _
 72
    65
 73
     4
 40
0.3543
 49
0.2362
 49
-0.0295
 49
0.0591
 49
-0.0295
  0
LTYPE
  2
LONG_DASH_DOUBLE_DOT
 70
     0
  3
Long Dash Double Dot ________  .  .  ________  
 72
    65
 73
     6
 40
0.6799999999999999
 49
0.48
 49
-0.06
 49
0.01
 49
-0.06
 49
0.01
 49
-0.06
  0
LTYPE
  2
LONG_DASH_TRIPLE_DOT
 70
     0
  3
Long Dash Triple Dot ____ ... ____ ... ____
 72
    65
 73
     8
 40
0.3689
 49
0.2362
 49
-0.0295
 49
0.0049
 49
-0.0295
 49
0.0049
 49
-0.0295
 49
0.0049
 49
-0.0295
  0
LTYPE
  2
BORDER
 70
     0
  3
Border __ __ . __ __ . __ __ . __ __ . __ __ .
 72
    65
 73
     6
 40
1.75
 49
0.5
 49
-0.25
 49
0.5
 49
-0.25
 49
0.0
 49
-0.25
  0
LTYPE
  2
BORDER2
 70
     0
  3
Border (.5x) __.__.__.__.__.__.__.__.__.__.__.
 72
    65
 73
     6
 40
0.875
 49
0.25
 49
-0.125
 49
0.25
 49
-0.125
 49
0.0
 49
-0.125
  0
LTYPE
  2
BORDERX2
 70
     0
  3
Border (2x) ____  ____  .  ____  ____  .  ___
 72
    65
 73
     6
 40
3.5
 49
1.0
 49
-0.5
 49
1.0
 49
-0.5
 49
0.0
 49
-0.5
  0
LTYPE
  2
CENTER
 70
     0
  3
Center ____ _ ____ _ ____ _ ____ _ ____ _ ____
 72
    65
 73
     4
 40
2.0
 49
1.25
 49
-0.25
 49
0.25
 49
-0.25
  0
LTYPE
  2
CENTER2
 70
     0
  3
Center (.5x) ___ _ ___ _ ___ _ ___ _ ___ _ ___
 72
    65
 73
     4
 40
1.125
 49
0.75
 49
-0.125
 49
0.125
 49
-0.125
  0
LTYPE
  2
CENTERX2
 70
     0
  3
Center (2x) ________  __  ________  __  _____
 72
    65
 73
     4
 40
4.0
 49
2.5
 49
-0.5
 49
0.5
 49
-0.5
  0
LTYPE
  2
DASHDOT2
 70
     0
  3
Dash dot (.5x) _._._._._._._._._._._._._._._.
 72
    65
 73
     4
 40
0.5
 49
0.25
 49
-0.125
 49
0.0
 49
-0.125
  0
LTYPE
  2
DASHDOTX2
 70
     0
  3
Dash dot (2x) ____  .  ____  .  ____  .  ___
 72
    65
 73
     4
 40
2.0
 49
1.0
 49
-0.5
 49
0.0
 49
-0.5
  0
LTYPE
  2
DASHED2
 70
     0
  3
Dashed (.5x) _ _ _ _ _ _ _ _ _ _ _ _ _ _ _ _ _
 72
    65
 73
     2
 40
0.375
 49
0.25
 49
-0.125
  0
LTYPE
  2
DASHEDX2
 70
     0
  3
Dashed (2x) ____  ____  ____  ____  ____  ___
 72
    65
 73
     2
 40
1.5
 49
1.0
 49
-0.5
  0
LTYPE
  2
DIVIDE
 70
     0
  3
Divide ____ . . ____ . . ____ . . ____ . . ____
 72
    65
 73
     6
 40
1.25
 49
0.5
 49
-0.25
 49
0.0
 49
-0.25
 49
0.0
 49
-0.25
  0
LTYPE
  2
DIVIDE2
 70
     0
  3
Divide (.5x) __..__..__..__..__..__..__..__.._
 72
    65
 73
     6
 40
0.625
 49
0.25
 49
-0.125
 49
0.0
 49
-0.125
 49
0.0
 49
-0.125
  0
LTYPE
  2
DIVIDEX2
 70
     0
  3
Divide (2x) ________  .  .  ________  .  .  _
 72
    65
 73
     6
 40
2.5
 49
1.0
 49
-0.5
 49
0.0
 49
-0.5
 49
0.0
 49
-0.5
  0
LTYPE
  2
DOT
 70
     0
  3
Dot . . . . . . . . . . . . . . . . . . . . . .
 72
    65
 73
     2
 40
0.25
 49
0.0
 49
-0.25
  0
LTYPE
  2
DOT2
 70
     0
  3
Dot (.5x) .....................................
 72
    65
 73
     2
 40
0.125
 49
0.0
 49
-0.125
  0
LTYPE
  2
DOTX2
 70
     0
  3
Dot (2x) .  .  .  .  .  .  .  .  .  .  .  .  . 
 72
    65
 73
     2
 40
0.5
 49
0.0
 49
-0.5
  0
LTYPE
  2
HIDDEN
 70
     0
  3
Hidden __ __ __ __ __ __ __ __ __ __ __ __ __ _
 72
    65
 73
     2
 40
0.375
 49
0.25
 49
-0.125
  0
LTYPE
  2
HIDDEN2
 70
     0
  3
Hidden (.5x) _ _ _ _ _ _ _ _ _ _ _ _ _ _ _ _ _
 72
    65
 73
     2
 40
0.1875
 49
0.125
 49
-0.0625
  0
LTYPE
  2
HIDDENX2
 70
     0
  3
Hidden (2x) ____ ____ ____ ____ ____ ____ ____
 72
    65
 73
     2
 40
0.75
 49
0.5
 49
-0.25
  0
LTYPE
  2
PHANTOM
 70
     0
  3
Phantom ______  __  __  ______  __  __  ______
 72
    65
 73
     6
 40
2.5
 49
1.25
 49
-0.25
 49
0.25
 49
-0.25
 49
0.25
 49
-0.25
  0
LTYPE
  2
PHANTOM2
 70
     0
  3
Phantom (.5x) ___ _ _ ___ _ _ ___ _ _ ___ _ _
 72
    65
 73
     6
 40
1.25
 49
0.625
 49
-0.125
 49
0.125
 49
-0.125
 49
0.125
 49
-0.125
  0
LTYPE
  2
PHANTOMX2
 70
     0
  3
Phantom (2x) ____________    ____    ____   _
 72
    65
 73
     6
 40
5.0
 49
2.5
 49
-0.5
 49
0.5
 49
-0.5
 49
0.5
 49
-0.5
  0
LTYPE
  2
ACAD_ISO02W100
 70
     0
  3
ISO dash __ __ __ __ __ __ __ __ __ __ __ __ __
 72
    65
 73
     2
 40
0.59
 49
0.47
 49
-0.12
  0
LTYPE
  2
ACAD_ISO03W100
 70
     0
  3
ISO dash space __    __    __    __    __    __
 72
    65
 73
     2
 40
1.179999999999999
 49
0.47
 49
-0.71
  0
LTYPE
  2
ACAD_ISO04W100
 70
     0
  3
ISO long-dash dot ____ . ____ . ____ . ____ . _
 72
    65
 73
     4
 40
1.179999999999999
 49
0.9399999999999998
 49
-0.12
 49
0.0
 49
-0.12
  0
LTYPE
  2
ACAD_ISO05W100
 70
     0
  3
ISO long-dash double-dot ____ .. ____ .. ____ .
 72
    65
 73
     6
 40
1.2999999999999989
 49
0.9399999999999998
 49
-0.12
 49
0.0
 49
-0.12
 49
0.0
 49
-0.12
  0
LTYPE
  2
ACAD_ISO06W100
 70
     0
  3
ISO long-dash triple-dot ____ ... ____ ... ____
 72
    65
 73
     8
 40
1.419999999999999
 49
0.9399999999999998
 49
-0.12
 49
0.0
 49
-0.12
 49
0.0
 49
-0.12
 49
0.0
 49
-0.12
  0
LTYPE
  2
ACAD_ISO07W100
 70
     0
  3
ISO dot . . . . . . . . . . . . . . . . . . . .
 72
    65
 73
     2
 40
0.12
 49
0.0
 49
-0.12
  0
LTYPE
  2
ACAD_ISO08W100
 70
     0
  3
ISO long-dash short-dash ____ __ ____ __ ____ _
 72
    65
 73
     4
 40
0.95
 49
0.47
 49
-0.12
 49
0.24
 49
-0.12
  0
LTYPE
  2
ACAD_ISO09W100
 70
     0
  3
ISO long-dash double-short-dash ____ __ __ ____
 72
    65
 73
     6
 40
1.3100000000000001
 49
0.47
 49
-0.12
 49
0.24
 49
-0.12
 49
0.24
 49
-0.12
  0
LTYPE
  2
ACAD_ISO10W100
 70
     0
  3
ISO dash dot __ . __ . __ . __ . __ . __ . __ .
 72
    65
 73
     4
 40
0.71
 49
0.47
 49
-0.12
 49
0.0
 49
-0.12
  0
LTYPE
  2
ACAD_ISO11W100
 70
     0
  3
ISO double-dash dot __ __ . __ __ . __ __ . __ 
 72
    65
 73
     6
 40
1.2999999999999989
 49
0.47
 49
-0.12
 49
0.47
 49
-0.12
 49
0.0
 49
-0.12
  0
LTYPE
  2
ACAD_ISO12W100
 70
     0
  3
ISO dash double-dot __ . . __ . . __ . . __ . .
 72
    65
 73
     6
 40
0.8299999999999998
 49
0.47
 49
-0.12
 49
0.0
 49
-0.12
 49
0.0
 49
-0.12
  0
LTYPE
  2
ACAD_ISO13W100
 70
     0
  3
ISO double-dash double-dot __ __ . . __ __ . . 
 72
    65
 73
     8
 40
1.419999999999999
 49
0.47
 49
-0.12
 49
0.47
 49
-0.12
 49
0.0
 49
-0.12
 49
0.0
 49
-0.12
  0
LTYPE
  2
ACAD_ISO14W100
 70
     0
  3
ISO dash triple-dot __ . . . __ . . . __ . . . 
 72
    65
 73
     8
 40
0.95
 49
0.47
 49
-0.12
 49
0.0
 49
-0.12
 49
0.0
 49
-0.12
 49
0.0
 49
-0.12
  0
LTYPE
  2
ACAD_ISO15W100
 70
     0
  3
ISO double-dash triple-dot __ __ . . . __ __ . 
 72
    65
 73
    10
 40
1.5399999999999989
 49
0.47
 49
-0.12
 49
0.47
 49
-0.12
 49
0.0
 49
-0.12
 49
0.0
 49
-0.12
 49
0.0
 49
-0.12
  0
LTYPE
  2
FENCELINE1
 70
     0
  3
Fenceline circle ----0-----0----0-----0----0---
 72
    65
 73
     4
 40
1.45
 49
0.25
 49
-0.1
 49
-0.1
 49
1.0
  0
LTYPE
  2
FENCELINE2
 70
     0
  3
Fenceline square ----[]-----[]----[]-----[]----
 72
    65
 73
     4
 40
1.45
 49
0.25
 49
-0.1
 49
-0.1
 49
1.0
  0
LTYPE
  2
TRACKS
 70
     0
  3
Tracks -|-|-|-|-|-|-|-|-|-|-|-|-|-|-|-|-|-|-|-|
 72
    65
 73
     2
 40
0.3
 49
0.15
 49
0.15
  0
LTYPE
  2
BATTING
 70
     0
  3
Batting SSSSSSSSSSSSSSSSSSSSSSSSSSSSSSSSSSSSSSS
 72
    65
 73
     4
 40
0.4001000000000001
 49
0.0001
 49
-0.1
 49
-0.2
 49
-0.1
  0
LTYPE
  2
HOT_WATER_SUPPLY
 70
     0
  3
Hot water supply ---- HW ---- HW ---- HW ----
 72
    65
 73
     3
 40
0.9
 49
0.5
 49
-0.2
 49
-0.2
  0
LTYPE
  2
GAS_LINE
 70
     0
  3
Gas line ----GAS----GAS----GAS----GAS----GAS---
 72
    65
 73
     3
 40
0.95
 49
0.5
 49
-0.2
 49
-0.25
  0
LTYPE
  2
ZIGZAG
 70
     0
  3
Zig zag /\/\/\/\/\/\/\/\/\/\/\/\/\/\/\/\/\/\/\/
 72
    65
 73
     4
 40
0.8001000000000001
 49
0.0001
 49
-0.2
 49
-0.4
 49
-0.2
  0
ENDTAB
  0
TABLE
  2
LAYER
 70
     1
  0
LAYER
  2
0
 70
     0
 62
     7
  6
CONTINUOUS
  0
ENDTAB
  0
TABLE
  2
STYLE
 70
     6
  0
STYLE
  2
STANDARD
 70
     0
 40
0.0
 41
1.0
 50
0.0
 71
     0
 42
0.2
  3
txt
  4

  0
STYLE
  2
ANNOTATIVE
 70
     0
 40
0.0
 41
1.0
 50
0.0
 71
     0
 42
0.2
  3
txt
  4

  0
STYLE
  2

 70
     1
 40
0.0
 41
1.0
 50
0.0
 71
     0
 42
0.2
  3
ltypeshp.shx
  4

  0
STYLE
  2
NOTE_TEXT__ANSI__-_3DA
 70
     0
 40
0.0
 41
1.0
 50
0.0
 71
     0
 42
0.2
  3
txt.shx
  4
bigfont.shx
  0
STYLE
  2
SKETCH_TEXT__ANSI__-_3DA
 70
     0
 40
0.0
 41
1.0
 50
0.0
 71
     0
 42
0.2
  3
txt.shx
  4
bigfont.shx
  0
STYLE
  2
STANDARD_DWG_STANDARD
 70
     0
 40
0.0
 41
1.0
 50
0.0
 71
     0
 42
0.2
  3
txt.shx
  4
bigfont.shx
  0
ENDTAB
  0
TABLE
  2
VIEW
 70
     0
  0
ENDTAB
  0
TABLE
  2
UCS
 70
     0
  0
ENDTAB
  0
TABLE
  2
APPID
 70
     3
  0
APPID
  2
ACAD
 70
     0
  0
APPID
  2
ACADANNOTATIVE
 70
     0
  0
APPID
  2
ACAD_MLEADERVER
 70
     0
  0
ENDTAB
  0
TABLE
  2
DIMSTYLE
 70
     2
  0
DIMSTYLE
  2
STANDARD
 70
     0
  3

  4

  5

  6

  7

 40
1.0
 41
0.18
 42
0.0625
 43
0.38
 44
0.18
 45
0.0
 46
0.0
 47
0.0
 48
0.0
140
0.18
141
0.09
142
0.0
143
25.3999999999999986
144
1.0
145
0.0
146
1.0
147
0.09
 71
     0
 72
     0
 73
     1
 74
     1
 75
     0
 76
     0
 77
     0
 78
     0
170
     0
171
     2
172
     0
173
     0
174
     0
175
     0
176
     0
177
     0
178
     0
  0
DIMSTYLE
  2
ANNOTATIVE
 70
     0
  3

  4

  5

  6

  7

 40
1.0
 41
0.18
 42
0.0625
 43
0.38
 44
0.18
 45
0.0
 46
0.0
 47
0.0
 48
0.0
140
0.18
141
0.09
142
0.0
143
25.3999999999999986
144
1.0
145
0.0
146
1.0
147
0.09
 71
     0
 72
     0
 73
     1
 74
     1
 75
     0
 76
     0
 77
     0
 78
     0
170
     0
171
     2
172
     0
173
     0
174
     0
175
     0
176
     0
177
     0
178
     0
  0
ENDTAB
  0
ENDSEC
  0
SECTION
  2
BLOCKS
  0
BLOCK
  8
0
  2
$MODEL_SPACE
 70
     0
 10
0.0
 20
0.0
 30
0.0
  3
$MODEL_SPACE
  1

  0
ENDBLK
  5
72
  8
0
  0
BLOCK
 67
     1
  8
0
  2
$PAPER_SPACE
 70
     0
 10
0.0
 20
0.0
 30
0.0
  3
$PAPER_SPACE
  1

  0
ENDBLK
  5
6E
 67
     1
  8
0
  0
ENDSEC
  0
SECTION
  2
ENTITIES
  0
POLYLINE
  5
B9
  8
0
 66
     1
 10
0.0
 20
0.0
 30
0.0
 70
     1
  0
VERTEX
  5
BA
  8
0
 10
-11.5097355569000008
 20
-2.8283029862000002
 30
0.0
  0
VERTEX
  5
BB
  8
0
 10
-11.5097355569000008
 20
-4.5999565295
 30
0.0
 42
-0.4142135623730951
  0
VERTEX
  5
BD
  8
0
 10
-11.6394107537503899
 20
-4.7296317263503953
 30
0.0
  0
VERTEX
  5
BE
  8
0
 10
-13.4110642970999994
 20
-4.7296317263503944
 30
0.0
 42
-0.4142135623730951
  0
VERTEX
  5
BF
  8
0
 10
-13.5407394939503902
 20
-4.5999565295
 30
0.0
  0
VERTEX
  5
C0
  8
0
 10
-13.5407394939503902
 20
-2.8283029862000002
 30
0.0
 42
-0.4142135623730951
  0
VERTEX
  5
C1
  8
0
 10
-13.4110642970999994
 20
-2.6986277893496049
 30
0.0
  0
VERTEX
  5
C2
  8
0
 10
-11.6394107538
 20
-2.698627789349604
 30
0.0
 42
-0.4142135624851365
  0
SEQEND
  5
BC
  8
0
  0
POLYLINE
  5
C4
  8
0
 66
     1
 10
0.0
 20
0.0
 30
0.0
 70
     1
  0
VERTEX
  5
C5
  8
0
 10
-2.2144894938999982
 20
-5.649129757799999
 30
0.0
 42
-0.4142135623730951
  0
VERTEX
  5
C6
  8
0
 10
-2.3394894938999999
 20
-5.5241297577999982
 30
0.0
  0
VERTEX
  5
C8
  8
0
 10
-2.3394894938999991
 20
-4.7141297577999994
 30
0.0
 42
-0.4142135623730951
  0
VERTEX
  5
C9
  8
0
 10
-2.2144894938999982
 20
-4.5891297577999968
 30
0.0
  0
VERTEX
  5
CA
  8
0
 10
-1.104489493899999
 20
-4.5891297577999994
 30
0.0
 42
-0.4142135623730951
  0
VERTEX
  5
CB
  8
0
 10
-0.9794894938999998
 20
-4.7141297577999994
 30
0.0
  0
VERTEX
  5
CC
  8
0
 10
-0.9794894938999997
 20
-5.5241297577999982
 30
0.0
 42
-0.4142135623730951
  0
VERTEX
  5
CD
  8
0
 10
-1.104489493899999
 20
-5.649129757799999
 30
0.0
  0
SEQEND
  5
C7
  8
0
  0
POLYLINE
  5
CE
  8
0
 66
     1
 10
0.0
 20
0.0
 30
0.0
 70
     1
  0
VERTEX
  5
CF
  8
0
 10
-0.9794894938999998
 20
-2.7141297577999981
 30
0.0
 42
-0.4142135623730951
  0
VERTEX
  5
D0
  8
0
 10
-1.104489493899999
 20
-2.8391297577999981
 30
0.0
  0
VERTEX
  5
D2
  8
0
 10
-2.2144894938999982
 20
-2.8391297577999981
 30
0.0
 42
-0.4142135623730951
  0
VERTEX
  5
D3
  8
0
 10
-2.3394894938999999
 20
-2.7141297577999981
 30
0.0
  0
VERTEX
  5
D4
  8
0
 10
-2.3394894938999991
 20
-1.9041297577999989
 30
0.0
 42
-0.4142135623730951
  0
VERTEX
  5
D5
  8
0
 10
-2.2144894938999982
 20
-1.779129757799998
 30
0.0
  0
VERTEX
  5
D6
  8
0
 10
-1.104489493899999
 20
-1.7791297577999989
 30
0.0
 42
-0.4142135623730951
  0
VERTEX
  5
D7
  8
0
 10
-0.9794894938999984
 20
-1.9041297577999989
 30
0.0
  0
SEQEND
  5
D1
  8
0
  0
POLYLINE
  5
D8
  8
0
 66
     1
 10
0.0
 20
0.0
 30
0.0
 70
     1
  0
VERTEX
  5
D9
  8
0
 10
-9.3490097486322821
 20
-3.21250826133946
 30
0.0
  0
VERTEX
  5
DA
  8
0
 10
-9.3490097486322821
 20
-2.71250826133946
 30
0.0
 42
-0.9999999999999998
  0
VERTEX
  5
DC
  8
0
 10
-8.5990097486322821
 20
-2.71250826133946
 30
0.0
  0
VERTEX
  5
DD
  8
0
 10
-8.5990097486322821
 20
-3.21250826133946
 30
0.0
 42
-0.9999999999999998
  0
SEQEND
  5
DB
  8
0
  0
POLYLINE
  5
DE
  8
0
 66
     1
 10
0.0
 20
0.0
 30
0.0
 70
     1
  0
VERTEX
  5
DF
  8
0
 10
-8.5990097486322821
 20
-4.2157512542605362
 30
0.0
  0
VERTEX
  5
E0
  8
0
 10
-8.5990097486322821
 20
-4.7157512542605362
 30
0.0
 42
-0.9999999999999998
  0
VERTEX
  5
E2
  8
0
 10
-9.3490097486322821
 20
-4.7157512542605362
 30
0.0
  0
VERTEX
  5
E3
  8
0
 10
-9.3490097486322821
 20
-4.2157512542605362
 30
0.0
 42
-0.9999999999999998
  0
SEQEND
  5
E1
  8
0
  0
POLYLINE
  5
E4
  8
0
 66
     1
 10
0.0
 20
0.0
 30
0.0
 70
     1
  0
VERTEX
  5
E5
  8
0
 10
-1.5419894938999981
 20
-3.5891297577999981
 30
0.0
  0
VERTEX
  5
E6
  8
0
 10
-1.5419894938999981
 20
-3.8391297577999981
 30
0.0
 42
-0.9999999999999998
  0
VERTEX
  5
E8
  8
0
 10
-1.9169894938999981
 20
-3.8391297577999981
 30
0.0
  0
VERTEX
  5
E9
  8
0
 10
-1.9169894938999981
 20
-3.5891297577999981
 30
0.0
 42
-0.9999999999999998
  0
SEQEND
  5
E7
  8
0
  0
POLYLINE
  5
EA
  8
0
 66
     1
 10
0.0
 20
0.0
 30
0.0
 70
     1
  0
VERTEX
  5
EB
  8
0
 10
-0.4794894938999987
 20
-5.5866297577999973
 30
0.0
  0
VERTEX
  5
EC
  8
0
 10
-0.4794894938999987
 20
-4.6516297577999977
 30
0.0
 42
-0.9999999999999998
  0
VERTEX
  5
EE
  8
0
 10
-0.3544894939000014
 20
-4.6516297577999977
 30
0.0
  0
VERTEX
  5
EF
  8
0
 10
-0.3544894939
 20
-5.5866297577999973
 30
0.0
 42
-0.9999999999999998
  0
SEQEND
  5
ED
  8
0
  0
POLYLINE
  5
F0
  8
0
 66
     1
 10
0.0
 20
0.0
 30
0.0
 70
     1
  0
VERTEX
  5
F1
  8
0
 10
-0.4794894938999987
 20
-2.7766297577999981
 30
0.0
  0
VERTEX
  5
F2
  8
0
 10
-0.4794894938999987
 20
-1.8416297578
 30
0.0
 42
-0.9999999999999998
  0
VERTEX
  5
F4
  8
0
 10
-0.3544894939000014
 20
-1.8416297578
 30
0.0
  0
VERTEX
  5
F5
  8
0
 10
-0.3544894939
 20
-2.7766297577999981
 30
0.0
 42
-0.9999999999999998
  0
SEQEND
  5
F3
  8
0
  0
POLYLINE
  5
F6
  8
0
 66
     1
 10
0.0
 20
0.0
 30
0.0
 70
     1
  0
VERTEX
  5
F7
  8
0
 10
-9.2077127986241596
 20
-0.7141297577758411
 30
0.0
  0
VERTEX
  5
F8
  8
0
 10
-8.9867419295241575
 20
-0.4931588886758414
 30
0.0
 42
-0.9999999925494194
  0
VERTEX
  5
FA
  8
0
 10
-8.8983535818758384
 20
-0.5815472363241577
 30
0.0
  0
VERTEX
  5
FB
  8
0
 10
-9.1193244509999989
 20
-0.8025181054999999
 30
0.0
 42
-0.9999999999999998
  0
SEQEND
  5
F9
  8
0
  0
POLYLINE
  5
FC
  8
0
 66
     1
 10
0.0
 20
0.0
 30
0.0
 70
     1
  0
VERTEX
  5
FD
  8
0
 10
-2.3316843757999979
 20
-0.5578797577999999
 30
0.0
  0
VERTEX
  5
FE
  8
0
 10
-2.3316843757999979
 20
-0.8703797577999999
 30
0.0
 42
-0.9999999999999998
  0
VERTEX
  5
100
  8
0
 10
-2.4566843758000001
 20
-0.8703797577999999
 30
0.0
  0
VERTEX
  5
101
  8
0
 10
-2.4566843758000001
 20
-0.5578797577999999
 30
0.0
 42
-0.9999999999999998
  0
SEQEND
  5
FF
  8
0
  0
POLYLINE
  5
102
  8
0
 66
     1
 10
0.0
 20
0.0
 30
0.0
 70
     1
  0
VERTEX
  5
103
  8
0
 10
-2.6441843757999979
 20
-0.5578797577999999
 30
0.0
  0
VERTEX
  5
104
  8
0
 10
-2.6441843757999979
 20
-0.8703797577999999
 30
0.0
 42
-0.9999999999999998
  0
VERTEX
  5
106
  8
0
 10
-2.7691843758000001
 20
-0.8703797577999999
 30
0.0
  0
VERTEX
  5
107
  8
0
 10
-2.7691843757999979
 20
-0.5578797577999999
 30
0.0
 42
-0.9999999999999998
  0
SEQEND
  5
105
  8
0
  0
POLYLINE
  5
108
  8
0
 66
     1
 10
0.0
 20
0.0
 30
0.0
 70
     1
  0
VERTEX
  5
109
  8
0
 10
-4.1357394938999992
 20
-0.3391297577999992
 30
0.0
  0
VERTEX
  5
10A
  8
0
 10
-3.8232394939000001
 20
-0.3391297577999992
 30
0.0
 42
-0.9999999999999998
  0
VERTEX
  5
10C
  8
0
 10
-3.8232394939000001
 20
-0.4641297578000009
 30
0.0
  0
VERTEX
  5
10D
  8
0
 10
-4.1357394938999992
 20
-0.4641297578
 30
0.0
 42
-0.9999999999999998
  0
SEQEND
  5
10B
  8
0
  0
POLYLINE
  5
10E
  8
0
 66
     1
 10
0.0
 20
0.0
 30
0.0
 70
     1
  0
VERTEX
  5
10F
  8
0
 10
-10.4760186248241496
 20
-1.9824355839758401
 30
0.0
  0
VERTEX
  5
110
  8
0
 10
-10.2550477557241599
 20
-1.76146471487584
 30
0.0
 42
-0.9999999999999998
  0
VERTEX
  5
112
  8
0
 10
-10.1666594080758408
 20
-1.8498530625241589
 30
0.0
  0
VERTEX
  5
113
  8
0
 10
-10.3876302771999995
 20
-2.0708239316000001
 30
0.0
 42
-0.9999999999999998
  0
SEQEND
  5
111
  8
0
  0
POLYLINE
  5
114
  8
0
 66
     1
 10
0.0
 20
0.0
 30
0.0
 70
     1
  0
VERTEX
  5
115
  8
0
 10
-6.6820842146999997
 20
-3.1354040427999981
 30
0.0
  0
VERTEX
  5
116
  8
0
 10
-6.9945842146999988
 20
-3.1354040427999981
 30
0.0
 42
-0.9999999999999998
  0
VERTEX
  5
118
  8
0
 10
-6.9945842146999988
 20
-3.0104040427999981
 30
0.0
  0
VERTEX
  5
119
  8
0
 10
-6.6820842146999997
 20
-3.0104040427999981
 30
0.0
 42
-0.9999999999999998
  0
SEQEND
  5
117
  8
0
  0
POLYLINE
  5
11A
  8
0
 66
     1
 10
0.0
 20
0.0
 30
0.0
 70
     1
  0
VERTEX
  5
11B
  8
0
 10
-6.6820842146999997
 20
-3.7604040427999981
 30
0.0
  0
VERTEX
  5
11C
  8
0
 10
-6.9945842146999988
 20
-3.7604040427999981
 30
0.0
 42
-0.9999999999999998
  0
VERTEX
  5
11E
  8
0
 10
-6.9945842146999988
 20
-3.6354040427999981
 30
0.0
  0
VERTEX
  5
11F
  8
0
 10
-6.6820842146999997
 20
-3.6354040427999981
 30
0.0
 42
-0.9999999999999998
  0
SEQEND
  5
11D
  8
0
  0
POLYLINE
  5
120
  8
0
 66
     1
 10
0.0
 20
0.0
 30
0.0
 70
     1
  0
VERTEX
  5
121
  8
0
 10
-4.9320842146999997
 20
-3.7604040427999981
 30
0.0
  0
VERTEX
  5
122
  8
0
 10
-5.2445842146999988
 20
-3.7604040427999981
 30
0.0
 42
-0.9999999999999998
  0
VERTEX
  5
124
  8
0
 10
-5.2445842146999988
 20
-3.6354040427999972
 30
0.0
  0
VERTEX
  5
125
  8
0
 10
-4.9320842146999997
 20
-3.6354040427999981
 30
0.0
 42
-0.9999999999999998
  0
SEQEND
  5
123
  8
0
  0
POLYLINE
  5
126
  8
0
 66
     1
 10
0.0
 20
0.0
 30
0.0
 70
     1
  0
VERTEX
  5
127
  8
0
 10
-3.1820842146999988
 20
-3.7604040427999981
 30
0.0
  0
VERTEX
  5
128
  8
0
 10
-3.4945842147000001
 20
-3.7604040427999981
 30
0.0
 42
-0.9999999999999998
  0
VERTEX
  5
12A
  8
0
 10
-3.4945842147000001
 20
-3.6354040427999981
 30
0.0
  0
VERTEX
  5
12B
  8
0
 10
-3.1820842146999988
 20
-3.6354040427999981
 30
0.0
 42
-0.9999999999999998
  0
SEQEND
  5
129
  8
0
  0
POLYLINE
  5
12C
  8
0
 66
     1
 10
0.0
 20
0.0
 30
0.0
 70
     1
  0
VERTEX
  5
12D
  8
0
 10
-4.9320842146999997
 20
-3.1354040427999981
 30
0.0
  0
VERTEX
  5
12E
  8
0
 10
-5.2445842146999988
 20
-3.1354040427999981
 30
0.0
 42
-0.9999999999999998
  0
VERTEX
  5
130
  8
0
 10
-5.2445842146999988
 20
-3.0104040427999972
 30
0.0
  0
VERTEX
  5
131
  8
0
 10
-4.9320842146999997
 20
-3.0104040427999981
 30
0.0
 42
-0.9999999999999998
  0
SEQEND
  5
12F
  8
0
  0
POLYLINE
  5
132
  8
0
 66
     1
 10
0.0
 20
0.0
 30
0.0
 70
     1
  0
VERTEX
  5
133
  8
0
 10
-3.1820842146999988
 20
-3.1354040427999981
 30
0.0
  0
VERTEX
  5
134
  8
0
 10
-3.4945842147000001
 20
-3.1354040427999981
 30
0.0
 42
-0.9999999999999998
  0
VERTEX
  5
136
  8
0
 10
-3.4945842147000001
 20
-3.0104040427999981
 30
0.0
  0
VERTEX
  5
137
  8
0
 10
-3.1820842146999988
 20
-3.0104040427999981
 30
0.0
 42
-0.9999999999999998
  0
SEQEND
  5
135
  8
0
  0
POLYLINE
  5
138
  8
0
 66
     1
 10
0.0
 20
0.0
 30
0.0
 70
     1
  0
VERTEX
  5
139
  8
0
 10
-9.2077127986241578
 20
-6.7141297578241561
 30
0.0
 42
-0.9999999999999998
  0
VERTEX
  5
13A
  8
0
 10
-9.1193244509758404
 20
-6.6257414101758387
 30
0.0
  0
VERTEX
  5
13C
  8
0
 10
-8.8983535819000004
 20
-6.8467122792999993
 30
0.0
 42
-0.9999999999999998
  0
VERTEX
  5
13D
  8
0
 10
-8.9867419295241557
 20
-6.9351006269241573
 30
0.0
  0
SEQEND
  5
13B
  8
0
  0
POLYLINE
  5
13E
  8
0
 66
     1
 10
0.0
 20
0.0
 30
0.0
 70
     1
  0
VERTEX
  5
13F
  8
0
 10
-10.4760186247991491
 20
-5.4458239315991568
 30
0.0
 42
-0.9999999999999998
  0
VERTEX
  5
140
  8
0
 10
-10.3876302772008398
 20
-5.3574355840008412
 30
0.0
  0
VERTEX
  5
142
  8
0
 10
-10.1666594080999992
 20
-5.5784064530999977
 30
0.0
 42
-1.0000000074505799
  0
VERTEX
  5
143
  8
0
 10
-10.2550477557483095
 20
-5.6667948007483169
 30
0.0
  0
SEQEND
  5
141
  8
0
  0
POLYLINE
  5
144
  8
0
 66
     1
 10
0.0
 20
0.0
 30
0.0
 70
     1
  0
VERTEX
  5
145
  8
0
 10
-8.6773827128000001
 20
-7.2141297577999977
 30
0.0
  0
VERTEX
  5
146
  8
0
 10
-1.2294894939000001
 20
-7.2141297577999977
 30
0.0
 42
0.4142135623730951
  0
VERTEX
  5
148
  8
0
 10
-0.2294894939000003
 20
-6.2141297577999968
 30
0.0
  0
VERTEX
  5
149
  8
0
 10
-0.2294894939000001
 20
-1.2141297578000001
 30
0.0
 42
0.4142135623600944
  0
VERTEX
  5
14A
  8
0
 10
-1.2294894939000001
 20
-0.2141297578443873
 30
0.0
  0
VERTEX
  5
14B
  8
0
 10
-8.6773827128000001
 20
-0.2141297578443878
 30
0.0
 42
0.198912367356586
  0
VERTEX
  5
14C
  8
0
 10
-9.0309361033488855
 20
-0.3605763672511135
 30
0.0
  0
VERTEX
  5
14D
  8
0
 10
-10.6130428845000004
 20
-1.9426831484
 30
0.0
 42
-0.1989123673796574
  0
VERTEX
  5
14E
  8
0
 10
-10.9665962751000006
 20
-2.0891297577999999
 30
0.0
  0
VERTEX
  5
14F
  8
0
 10
-13.6144088600999993
 20
-2.0891297577999981
 30
0.0
 42
0.2691426358340151
  0
VERTEX
  5
150
  8
0
 10
-13.8314696455621
 20
-2.2150950232324429
 30
0.0
  0
VERTEX
  5
151
  8
0
 10
-14.1875093422497098
 20
-2.838164492410745
 30
0.0
 42
-0.2691426358980727
  0
VERTEX
  5
152
  8
0
 10
-14.4045701277999996
 20
-2.9641297577999981
 30
0.0
  0
VERTEX
  5
153
  8
0
 10
-15.0094894939000003
 20
-2.9641297577999981
 30
0.0
 42
0.4142135623730951
  0
VERTEX
  5
154
  8
0
 10
-15.2594894939000003
 20
-3.2141297577999981
 30
0.0
  0
VERTEX
  5
155
  8
0
 10
-15.2594894939000003
 20
-4.2141297577999977
 30
0.0
 42
0.4142135624733728
  0
VERTEX
  5
156
  8
0
 10
-15.00948949388426
 20
-4.4641297578855923
 30
0.0
  0
VERTEX
  5
157
  8
0
 10
-14.4045701277842504
 20
-4.4641297578855923
 30
0.0
 42
-0.2691426358509001
  0
VERTEX
  5
158
  8
0
 10
-14.1875093423064094
 20
-4.5900950232689928
 30
0.0
  0
VERTEX
  5
159
  8
0
 10
-13.8314696456188102
 20
-5.2131644924472926
 30
0.0
 42
0.269142635847291
  0
VERTEX
  5
15A
  8
0
 10
-13.6144088600999993
 20
-5.3391297577999994
 30
0.0
  0
VERTEX
  5
15B
  8
0
 10
-10.9665962751000006
 20
-5.3391297577999977
 30
0.0
 42
-0.1989123673796577
  0
VERTEX
  5
15C
  8
0
 10
-10.6130428845432707
 20
-5.4855763672432722
 30
0.0
  0
VERTEX
  5
15D
  8
0
 10
-9.030936103343274
 20
-7.0676831484432734
 30
0.0
 42
0.1989123673429036
  0
SEQEND
  5
147
  8
0
  0
CIRCLE
  5
15E
  8
0
 10
-5.3683014770673108
 20
-6.0330273955952718
 30
0.0
 40
0.0610236220472441
  0
CIRCLE
  5
15F
  8
0
 10
-5.9588526581696728
 20
-4.8519250333905477
 30
0.0
 40
0.0610236220472441
  0
CIRCLE
  5
160
  8
0
 10
-5.3683014770673116
 20
-4.8519250333905477
 30
0.0
 40
0.0610236220472441
  0
CIRCLE
  5
161
  8
0
 10
-5.9588526581696728
 20
-6.0330273955952718
 30
0.0
 40
0.0610236220472441
  0
CIRCLE
  5
162
  8
0
 10
-10.1357234864126902
 20
-4.9022355936007598
 30
0.0
 40
0.0492125984251969
  0
CIRCLE
  5
163
  8
0
 10
-9.7114594177007607
 20
-5.3264996623126866
 30
0.0
 40
0.0492125984251969
  0
CIRCLE
  5
164
  8
0
 10
-5.1637055713012607
 20
-6.5022434428934366
 30
0.0
 40
0.0610236220472423
  0
CIRCLE
  5
165
  8
0
 10
-5.1637055713012607
 20
-5.227243442893438
 30
0.0
 40
0.0610236220472423
  0
CIRCLE
  5
166
  8
0
 10
-7.4717055713012579
 20
-5.6397434428934359
 30
0.0
 40
0.0610236220472423
  0
CIRCLE
  5
167
  8
0
 10
-7.4717055713012579
 20
-6.0897434428934352
 30
0.0
 40
0.0610236220472423
  0
CIRCLE
  5
168
  8
0
 10
-14.7594894939000003
 20
-3.2141297577999981
 30
0.0
 40
0.0610236220472423
  0
CIRCLE
  5
169
  8
0
 10
-14.7594894939000003
 20
-4.2141297577999977
 30
0.0
 40
0.0610236220472423
  0
CIRCLE
  5
16A
  8
0
 10
-14.0094894939000003
 20
-4.3391297577999977
 30
0.0
 40
0.0610236220472441
  0
CIRCLE
  5
16B
  8
0
 10
-14.0094894939000003
 20
-3.0891297577999981
 30
0.0
 40
0.0610236220472441
  0
CIRCLE
  5
16C
  8
0
 10
-1.2594894939000001
 20
-3.0891297577999981
 30
0.0
 40
0.0610236220472427
  0
CIRCLE
  5
16D
  8
0
 10
-1.2594894939000001
 20
-4.3391297577999977
 30
0.0
 40
0.0610236220472427
  0
CIRCLE
  5
16E
  8
0
 10
-13.4183217110000008
 20
-5.0891297577999977
 30
0.0
 40
0.0610236220472405
  0
CIRCLE
  5
16F
  8
0
 10
-13.4183217110000008
 20
-2.3391297577999981
 30
0.0
 40
0.0610236220472405
  0
CIRCLE
  5
170
  8
0
 10
-11.4183217109999902
 20
-5.0891297577999977
 30
0.0
 40
0.0610236220472423
  0
CIRCLE
  5
171
  8
0
 10
-11.4183217109999902
 20
-2.3391297577999981
 30
0.0
 40
0.0610236220472423
  0
CIRCLE
  5
172
  8
0
 10
-9.5474961609999962
 20
-3.7141297577999981
 30
0.0
 40
0.0642499999999995
  0
CIRCLE
  5
173
  8
0
 10
-2.0842926434999982
 20
-6.2141297577999968
 30
0.0
 40
0.0610236220472427
  0
CIRCLE
  5
174
  8
0
 10
-2.0842926434999982
 20
-1.2141297578000001
 30
0.0
 40
0.0610236220472427
  0
CIRCLE
  5
175
  8
0
 10
-9.0842926434999995
 20
-6.2141297577999968
 30
0.0
 40
0.0610236220472423
  0
CIRCLE
  5
176
  8
0
 10
-9.0842926434999995
 20
-1.2141297578000001
 30
0.0
 40
0.0610236220472423
  0
CIRCLE
  5
177
  8
0
 10
-2.4937414624000001
 20
-1.6668856632999991
 30
0.0
 40
0.0492125984251969
  0
CIRCLE
  5
178
  8
0
 10
-2.4937414624000001
 20
-6.8834210964000002
 30
0.0
 40
0.0492125984251969
  0
CIRCLE
  5
179
  8
0
 10
-8.6748438246999982
 20
-6.8834210964000002
 30
0.0
 40
0.0492125984251969
  0
CIRCLE
  5
17A
  8
0
 10
-8.6748438246999982
 20
-0.7613738523000002
 30
0.0
 40
0.0492125984251969
  0
CIRCLE
  5
17B
  8
0
 10
-9.8842405569
 20
-4.2456297578000051
 30
0.0
 40
0.0492125984251969
  0
CIRCLE
  5
17C
  8
0
 10
-9.8842405569
 20
-3.1826297578000049
 30
0.0
 40
0.0492125984251969
  0
CIRCLE
  5
17D
  8
0
 10
-10.9472405569000006
 20
-3.1826297578000071
 30
0.0
 40
0.0492125984251969
  0
CIRCLE
  5
17E
  8
0
 10
-10.9472405569000006
 20
-4.2456297578000051
 30
0.0
 40
0.0492125984251969
  0
CIRCLE
  5
17F
  8
0
 10
-3.6738595726999979
 20
-0.742997868
 30
0.0
 40
0.0445
  0
CIRCLE
  5
180
  8
0
 10
-3.6738595726999979
 20
-2.6177616475999979
 30
0.0
 40
0.0445
  0
CIRCLE
  5
181
  8
0
 10
-7.8077178403999987
 20
-0.742997868
 30
0.0
 40
0.0445
  0
CIRCLE
  5
182
  8
0
 10
-7.8077178403999987
 20
-2.6177616475999979
 30
0.0
 40
0.0445
  0
ENDSEC
  0
EOF
